<?xml version="1.0" standalone="no"?>
<!DOCTYPE svg PUBLIC "-//W3C//DTD SVG 20010904//EN"
 "http://www.w3.org/TR/2001/REC-SVG-20010904/DTD/svg10.dtd">
<svg version="1.0" xmlns="http://www.w3.org/2000/svg"
 width="705.000000pt" height="520.000000pt" viewBox="0 0 705.000000 520.000000"
 preserveAspectRatio="xMidYMid meet">

<g transform="translate(0.000000,520.000000) scale(0.100000,-0.100000)"
fill="#000000" stroke="none">
<path d="M1911 4410 c-249 -424 -456 -772 -460 -774 -4 -3 -79 277 -167 622
-147 578 -161 627 -179 624 -11 -2 -22 -6 -24 -8 -2 -2 71 -299 163 -659 l166
-656 -475 -806 c-261 -443 -474 -807 -473 -808 2 0 54 -31 117 -68 62 -37 115
-66 116 -65 1 2 181 307 399 678 219 371 401 679 405 683 5 5 23 -49 40 -119
l32 -127 -771 -1373 c-423 -755 -770 -1377 -770 -1382 0 -15 221 -135 231
-125 4 4 255 449 558 988 l550 980 217 0 217 0 66 -258 c54 -214 68 -257 82
-257 10 0 20 4 24 9 3 6 -22 120 -56 256 -34 135 -60 248 -57 250 3 3 511 8
1129 12 l1124 6 40 -27 c35 -24 47 -27 97 -24 43 3 64 10 82 27 24 23 29 23
335 29 l311 5 0 25 0 25 -289 -5 -289 -4 24 49 c33 65 64 187 64 253 0 43 -4
56 -22 68 -24 17 -68 22 -68 7 0 -4 -23 -6 -50 -3 -94 9 -198 -55 -269 -166
-53 -84 -50 -132 8 -132 30 0 137 42 231 91 36 19 68 35 73 37 16 8 6 -124
-13 -165 l-19 -43 -100 0 c-59 0 -102 4 -106 10 -4 7 -11 7 -18 2 -7 -5 -492
-12 -1154 -16 l-1142 -6 -10 38 c-42 158 -121 485 -121 499 0 9 23 57 51 106
27 49 49 93 47 98 -2 5 -44 33 -93 62 l-90 52 -42 162 -42 162 518 879 c285
483 523 888 529 899 11 19 3 26 -99 87 -61 36 -114 66 -117 66 -4 0 -211 -347
-461 -770z m-181 -2106 c32 -126 57 -230 55 -232 -1 -1 -88 -1 -192 0 l-191 3
131 233 c71 128 132 230 134 228 2 -2 30 -107 63 -232z m2664 80 c19 -49 -4
-73 -141 -144 -89 -46 -123 -47 -123 -4 0 77 239 212 264 148z m-141 -361 c-7
-2 -21 -2 -30 0 -10 3 -4 5 12 5 17 0 24 -2 18 -5z"/>
<path d="M2530 2641 c-182 -17 -310 -77 -310 -147 0 -32 19 -43 86 -49 53 -6
57 -5 34 7 -14 7 -26 23 -28 35 -4 30 49 87 100 108 64 25 251 41 336 28 202
-31 342 -178 293 -306 -34 -88 -244 -183 -425 -192 -43 -3 -80 -6 -83 -8 -11
-12 89 -16 169 -7 157 18 261 56 339 127 151 137 78 316 -157 386 -64 19 -241
28 -354 18z"/>
<path d="M2545 2544 c-27 -29 -86 -170 -110 -263 -20 -79 -23 -155 -5 -175 20
-25 30 -19 30 17 0 67 72 245 144 357 25 39 46 75 46 80 0 6 -18 10 -40 10
-31 0 -47 -6 -65 -26z"/>
<path d="M3951 2511 c-12 -8 -13 -12 -1 -25 9 -12 22 -15 49 -10 48 9 54 13
40 30 -13 16 -66 19 -88 5z"/>
<path d="M3643 2450 c-78 -16 -152 -72 -139 -105 3 -9 36 -30 73 -46 38 -17
87 -39 111 -50 77 -35 49 -49 -100 -49 -53 0 -99 -4 -103 -10 -3 -5 6 -17 20
-26 22 -14 42 -16 131 -11 173 10 200 47 78 107 -40 19 -79 41 -88 49 -25 21
-15 52 24 79 32 22 43 24 113 19 81 -5 96 3 49 27 -38 20 -117 27 -169 16z"/>
<path d="M3254 2426 c-38 -17 -101 -89 -109 -127 -16 -70 43 -148 118 -156 49
-6 137 18 158 43 22 26 1 26 -44 0 -84 -50 -153 -24 -145 55 2 26 8 32 28 34
146 14 179 19 208 31 46 19 32 40 -64 92 -83 45 -102 49 -150 28z m162 -62
c39 -19 44 -39 12 -48 -38 -10 -178 -19 -178 -12 0 18 23 47 48 60 36 20 76
20 118 0z"/>
<path d="M3945 2408 c-33 -19 -44 -41 -45 -88 0 -47 41 -150 60 -150 6 0 10
23 10 53 0 28 10 80 22 115 19 54 20 65 8 72 -19 12 -31 12 -55 -2z"/>
<path d="M4607 2403 c-17 -20 -51 -116 -62 -176 -8 -38 5 -67 30 -67 7 0 32
29 55 65 78 120 144 160 214 131 43 -18 51 -42 43 -132 -5 -66 3 -73 27 -26
28 55 24 131 -10 171 -42 50 -109 42 -208 -24 l-29 -19 17 31 c14 29 14 33 0
47 -21 21 -57 20 -77 -1z"/>
<path d="M6305 2006 c4 -30 4 -72 0 -94 l-6 -40 -52 5 c-64 7 -167 -18 -219
-52 -53 -35 -92 -105 -84 -150 9 -46 39 -65 102 -65 70 0 134 21 194 64 50 36
50 36 50 12 0 -42 18 -76 40 -76 20 0 20 1 6 22 -25 35 -19 84 24 208 46 134
51 182 18 204 -12 9 -35 16 -51 16 l-28 0 6 -54z m-21 -162 c40 -15 9 -103
-52 -148 -113 -82 -238 -90 -218 -14 22 90 193 192 270 162z"/>
<path d="M5412 1993 c-11 -10 -27 -41 -37 -70 -12 -39 -22 -53 -40 -57 -25 -6
-34 -30 -16 -41 6 -3 10 -42 9 -86 0 -86 18 -130 56 -137 15 -3 16 -1 6 19
-17 31 -7 137 16 186 19 38 20 38 84 41 89 4 103 22 17 22 -37 0 -67 2 -67 6
0 3 18 32 40 64 22 32 40 61 40 64 0 15 -89 5 -108 -11z"/>
<path d="M6492 1971 c-11 -6 -10 -11 3 -25 26 -26 108 -5 91 23 -8 13 -75 14
-94 2z"/>
<path d="M5077 1910 c-46 -12 -109 -43 -126 -64 -7 -8 -11 -25 -9 -38 2 -18
24 -31 112 -70 60 -26 111 -50 114 -53 14 -14 -20 -20 -129 -23 -93 -3 -119
-7 -119 -17 0 -29 41 -38 144 -32 108 5 156 20 156 47 0 23 -26 44 -81 64 -25
10 -58 28 -74 40 -26 21 -28 26 -18 49 20 44 66 60 150 54 41 -3 73 -1 73 4 0
31 -122 56 -193 39z"/>
<path d="M6475 1857 c-38 -32 -43 -89 -15 -155 12 -28 28 -57 36 -63 12 -9 14
-3 14 37 0 27 11 79 24 117 23 65 23 68 6 77 -27 14 -36 13 -65 -13z"/>
<path d="M5608 1859 c-27 -15 -72 -171 -61 -206 8 -24 15 -28 54 -31 52 -3
101 25 184 108 l53 51 -11 -39 c-15 -57 -3 -91 39 -108 45 -19 55 -11 21 17
-32 24 -34 51 -8 118 10 28 16 52 13 55 -12 13 -41 5 -63 -17 -80 -78 -163
-147 -179 -147 -37 0 -35 60 6 143 13 27 24 53 24 58 0 12 -51 11 -72 -2z"/>
<path d="M6685 1842 c-66 -48 -80 -69 -80 -119 0 -38 5 -49 33 -74 26 -24 41
-29 82 -29 57 0 136 29 186 67 42 32 57 57 49 83 -8 27 -129 90 -184 97 -40 4
-51 1 -86 -25z m75 -27 c0 -20 37 -38 65 -31 15 4 31 -1 46 -13 l24 -19 -21
-29 c-29 -40 -99 -73 -155 -73 -58 0 -79 18 -79 67 0 29 8 44 40 75 41 39 80
50 80 23z"/>
</g>
</svg>
